<?xml version="1.0" encoding="UTF-8" standalone="no"?>
<svg
   id="body_1"
   width="5"
   height="5"
   version="1.1"
   xmlns="http://www.w3.org/2000/svg"
   xmlns:svg="http://www.w3.org/2000/svg">
  <defs
     id="defs464" />
  <g
     id="layer3"
     style="display:inline">
    <path
       d="m 213.012,449.88342 c -51.86295,-4.6 -99.05416,-25.90207 -135.79451,-61.29754 C 72.112114,383.6674 65.36313,376.46097 62.21975,372.5716 59.07637,368.68222 56.220547,365.275 55.873474,365 55.526405,364.725 51.733223,359.325 47.444183,353 35.264023,335.03806 23.79334,310.67184 18.99478,292.56732 c -1.156393,-4.36294 -2.278635,-8.21759 -2.49387,-8.56586 -0.215235,-0.34823 -1.581477,-7.35354 -3.036095,-15.56732 C 7.446835,234.45247 9.691872,198.37248 19.900888,165 24.278181,150.69096 27.318554,143.26088 34.37368,129.63127 55.88786,88.0686 88.0686,55.88786 129.63127,34.37368 149.80368,23.93179 168.01433,17.874037 193,13.294143 c 12.83372,-2.352435 17.08559,-2.663757 37,-2.709148 20.31966,-0.04632 23.9756,0.215134 37.72742,2.698029 8.37508,1.512123 16.28634,3.151916 17.58056,3.643982 1.29425,0.492067 5.46689,1.672164 9.27259,2.622438 17.66113,4.409964 46.94976,19.015238 65.41943,32.622516 2.475,1.823424 4.725,3.54574 5,3.82737 0.275,0.281626 2.3,1.845294 4.5,3.47481 8.83398,6.54324 26.7057,25.044 35.76086,37.01959 0.41849,0.55345 1.73814,2.30666 2.93254,3.89603 13.19365,17.55664 27.281,45.75825 32.77376,65.61024 7.9191,28.62129 11.05197,55.79065 9.08927,78.82596 -1.13666,13.34064 -4.98609,36.23651 -6.96781,41.44366 -0.57972,1.52328 -1.73529,5.70713 -2.56792,9.29743 -0.83265,3.59027 -2.36183,8.41895 -3.39814,10.73037 -1.03636,2.31144 -2.21884,5.32758 -2.62776,6.70258 -1.3671,4.59683 -13.78057,28.4 -19.2408,36.89487 -15.8287,24.62583 -40.06418,48.85916 -65.254,65.2482 -9.35098,6.08395 -32.2035,17.86987 -38.5,19.85589 -2.2,0.69391 -4.48853,1.64674 -5.08563,2.11737 -3.74271,2.95007 -43.16407,11.3747 -59.92993,12.80747 -14.01403,1.1976 -19.59058,1.1909 -33.47244,-0.0404 v 0 z M 413.6003,268.23468 c 8.35017,-5.57556 9.25557,-64.76843 1.14695,-74.98468 C 413.96,192.25813 375.81418,192 230.02943,192 v 0 H 46.30375 l -1.59394,3.75 C 41.219822,203.96077 40.5,210.07355 40.5,231.5 c 0,18.98357 1.91055,31.9698 5.259583,35.75 1.46598,1.65472 11.491587,1.74918 184.145397,1.73468 100.42726,-0.008 183.09014,-0.34592 183.6953,-0.75 z"
       stroke="none"
       fill="#be101d"
       fill-rule="nonzero"
       id="path451"
       clip-path="none"
       transform="scale(0.01086956)" />
  </g>
  <g
     id="layer2"
     style="display:inline">
    <path
       d="M 45.759583,267.25 C 42.41055,263.4698 40.5,250.48357 40.5,231.5 c 0,-21.42645 0.719822,-27.53923 4.20981,-35.75 v 0 L 46.30375,192 h 183.72568 c 145.78475,0 183.93057,0.25813 184.71782,1.25 8.10862,10.21626 7.20322,69.40915 -1.14695,74.98468 -0.60515,0.40408 -83.26806,0.74158 -183.6953,0.75 -172.65381,0.0145 -182.67943,-0.08 -184.145402,-1.73468 v 0 z"
       stroke="none"
       fill="#010000"
       fill-rule="nonzero"
       id="path453"
       transform="scale(0.01086956)" />
  </g>
</svg>
